<svg xmlns="http://www.w3.org/2000/svg" viewBox="0 0 512 512">
  <defs>
    <linearGradient id="g" x1="0" y1="0" x2="0" y2="1">
      <stop offset="0" stop-color="#0e74aa"/>
      <stop offset="1" stop-color="#08345c"/>
    </linearGradient>
  </defs>
  <rect width="512" height="512" rx="112" fill="url(#g)"/>
  <circle cx="392" cy="128" r="42" fill="#ffce54"/>
  <!-- モーターボート（右へ走る）: 船体・キャビン・風防 -->
  <path d="M60 300h356c18 0 30 6 38 14l-34 30c-8 7-18 10-30 10H116c-16 0-28-8-34-20z" fill="#fff"/>
  <path d="M150 300l30-64h120l62 64z" fill="#e6f0f8"/>
  <path d="M204 250h58l40 42h-110z" fill="#7cc4ea"/>
  <rect x="86" y="318" width="330" height="10" rx="5" fill="#0e74aa" opacity=".55"/>
  <!-- 航跡と波 -->
  <path d="M30 322c18 8 30 20 52 30" fill="none" stroke="#fff" stroke-width="14" stroke-linecap="round" opacity=".8"/>
  <path d="M62 412c32 0 32-22 64-22s32 22 65 22 32-22 64-22 32 22 65 22 32-22 64-22 32 22 64 22" fill="none" stroke="#fff" stroke-width="18" stroke-linecap="round"/>
  <path d="M62 454c32 0 32-22 64-22s32 22 65 22 32-22 64-22 32 22 65 22 32-22 64-22 32 22 64 22" fill="none" stroke="#fff" stroke-opacity=".6" stroke-width="18" stroke-linecap="round"/>
</svg>
